<svg width="24" height="24" viewBox="0 0 24 24" fill="none" xmlns="http://www.w3.org/2000/svg">
<path d="M8.252 18.459C7.462 19.764 7.107 21 5.7 21C4.209 21 3 19.757 3 18.223C3 16.689 4.209 15.445 5.7 15.445C7.1 15.445 8.25 16.54 8.386 17.943C8.39761 18.1246 8.35064 18.3061 8.252 18.459ZM8.252 18.459L10.2 14.982M15.748 18.458C16.538 19.764 16.893 21 18.3 21C19.791 21 21 19.757 21 18.223C21 16.689 19.791 15.445 18.3 15.445C16.9 15.445 15.75 16.54 15.613 17.943C15.596 18.125 15.653 18.303 15.748 18.458ZM15.748 18.458L7.093 3.346C7.03979 3.25044 6.96367 3.16961 6.87148 3.11076C6.77929 3.05192 6.67392 3.0169 6.56484 3.00887C6.45577 3.00084 6.34641 3.02004 6.24659 3.06475C6.14677 3.10945 6.05963 3.17827 5.993 3.265C4.289 5.455 4.459 8.615 6.388 10.598L15.748 18.458ZM11.951 11.828L16.904 3.334C16.9578 3.23916 17.0342 3.15913 17.1264 3.10103C17.2186 3.04293 17.3238 3.00858 17.4326 3.00106C17.5413 2.99353 17.6503 3.01306 17.7496 3.05789C17.849 3.10273 17.9357 3.17147 18.002 3.258C19.709 5.452 19.539 8.616 17.607 10.603L16.5 11.742" stroke="#1E1E1E" stroke-width="2" stroke-linecap="round" stroke-linejoin="round"/>
</svg>
