<svg width="20" height="20" viewBox="0 0 20 20" fill="none" xmlns="http://www.w3.org/2000/svg">
<path d="M4.505 2H4.492C4.43164 2.00128 4.37201 2.01347 4.316 2.036C4.23501 2.06807 4.1638 2.12073 4.10942 2.18879C4.05505 2.25685 4.0194 2.33793 4.006 2.424C3.99 2.518 3.5 5.595 3.5 7C3.5 7.95 3.942 8.797 4.63 9.345C4.88 9.546 5 9.764 5 9.946V10.446C5 10.464 4.999 10.482 4.997 10.5C4.97 10.76 4.846 11.929 4.729 13.131C4.614 14.316 4.5 15.581 4.5 16C4.5 16.5304 4.71071 17.0391 5.08579 17.4142C5.46086 17.7893 5.96957 18 6.5 18C7.03043 18 7.53914 17.7893 7.91421 17.4142C8.28929 17.0391 8.5 16.5304 8.5 16C8.5 15.58 8.386 14.316 8.271 13.131C8.1855 12.2539 8.09617 11.3773 8.003 10.501L8 10.446V9.946C8 9.763 8.12 9.546 8.37 9.345C8.72239 9.0641 9.00696 8.70741 9.20259 8.30144C9.39822 7.89547 9.49987 7.45065 9.5 7C9.5 5.592 9.007 2.501 8.994 2.423C8.97929 2.32901 8.93808 2.24117 8.8752 2.16979C8.81232 2.09841 8.73038 2.04644 8.639 2.02C8.59706 2.00772 8.55369 2.001 8.51 2H8.49H8.491C8.35776 2.00106 8.23034 2.05473 8.13649 2.14932C8.04265 2.24391 7.99 2.37176 7.99 2.505V6.505C7.99138 6.57 7.97994 6.63464 7.95634 6.69523C7.93274 6.75581 7.89743 6.81115 7.85244 6.85809C7.80745 6.90503 7.75366 6.94265 7.69413 6.9688C7.6346 6.99495 7.5705 7.00912 7.5055 7.0105C7.4405 7.01188 7.37586 7.00044 7.31527 6.97684C7.25469 6.95324 7.19935 6.91793 7.15241 6.87294C7.10547 6.82795 7.06785 6.77416 7.0417 6.71463C7.01555 6.6551 7.00138 6.591 7 6.526V2.5C7 2.36739 6.94732 2.24021 6.85355 2.14645C6.75979 2.05268 6.63261 2 6.5 2C6.36739 2 6.24021 2.05268 6.14645 2.14645C6.05268 2.24021 6 2.36739 6 2.5V6.5L6.001 6.532C5.99742 6.66328 5.94183 6.78776 5.84647 6.87806C5.75111 6.96836 5.62378 7.01708 5.4925 7.0135C5.36122 7.00992 5.23673 6.95433 5.14644 6.85897C5.05614 6.76361 5.00742 6.63628 5.011 6.505V2.506C5.011 2.37197 4.95783 2.24342 4.86315 2.14856C4.76847 2.05369 4.63903 2.00026 4.505 2ZM11 6.5C11 5.30653 11.4741 4.16193 12.318 3.31802C13.1619 2.47411 14.3065 2 15.5 2C15.6326 2 15.7598 2.05268 15.8536 2.14645C15.9473 2.24021 16 2.36739 16 2.5V9.478L16.02 9.702C16.0979 10.6005 16.1739 11.4992 16.248 12.398C16.372 13.905 16.5 15.559 16.5 16C16.5 16.5304 16.2893 17.0391 15.9142 17.4142C15.5391 17.7893 15.0304 18 14.5 18C13.9696 18 13.4609 17.7893 13.0858 17.4142C12.7107 17.0391 12.5 16.5304 12.5 16C12.5 15.56 12.628 13.905 12.752 12.398C12.814 11.637 12.877 10.901 12.924 10.356L12.954 10H12.5C12.1022 10 11.7206 9.84196 11.4393 9.56066C11.158 9.27936 11 8.89782 11 8.5V6.5Z" fill="#1E1E1E"/>
</svg>
