<svg width="24" height="24" viewBox="0 0 24 24" fill="none" xmlns="http://www.w3.org/2000/svg">
<path d="M8.02502 18H11.025V17H9.02502V16H11.025V13H8.02502V14H10.025V15H8.02502V18ZM15.025 18H16.025V13H15.025V15H14.025V13H13.025V16H15.025V18ZM21.025 11.05V19C21.025 19.55 20.8294 20.021 20.438 20.413C20.0467 20.805 19.5757 21.0007 19.025 21H5.02502C4.47502 21 4.00435 20.8043 3.61302 20.413C3.22168 20.0217 3.02568 19.5507 3.02502 19V11.05C2.64168 10.7 2.34602 10.25 2.13802 9.7C1.93002 9.15 1.92568 8.55 2.12502 7.9L3.17502 4.5C3.30835 4.06667 3.54602 3.70833 3.88802 3.425C4.23002 3.14167 4.62568 3 5.07502 3H18.975C19.425 3 19.8167 3.13767 20.15 3.413C20.4834 3.68833 20.725 4.05067 20.875 4.5L21.925 7.9C22.125 8.55 22.121 9.14167 21.913 9.675C21.705 10.2083 21.409 10.6667 21.025 11.05ZM14.225 10C14.675 10 15.0167 9.846 15.25 9.538C15.4834 9.23 15.575 8.884 15.525 8.5L14.975 5H13.025V8.7C13.025 9.05 13.1417 9.35433 13.375 9.613C13.6084 9.87167 13.8917 10.0007 14.225 10ZM9.72502 10C10.1084 10 10.421 9.87067 10.663 9.612C10.905 9.35333 11.0257 9.04933 11.025 8.7V5H9.07502L8.52502 8.5C8.45835 8.9 8.54568 9.25 8.78702 9.55C9.02835 9.85 9.34102 10 9.72502 10ZM5.27502 10C5.57502 10 5.83735 9.89167 6.06202 9.675C6.28668 9.45833 6.42435 9.18333 6.47502 8.85L7.02502 5H5.07502L4.07502 8.35C3.97502 8.68333 4.02902 9.04167 4.23702 9.425C4.44502 9.80833 4.79102 10 5.27502 10ZM18.775 10C19.2584 10 19.6084 9.80833 19.825 9.425C20.0417 9.04167 20.0917 8.68333 19.975 8.35L18.925 5H17.025L17.575 8.85C17.625 9.18333 17.7627 9.45833 17.988 9.675C18.2134 9.89167 18.4757 10 18.775 10Z" fill="#1E1E1E"/>
</svg>
